<?xml version="1.0" encoding="utf-8"?>
<svg version="1.1" xmlns:xlink="http://www.w3.org/1999/xlink" width="8px" height="8px" xmlns="http://www.w3.org/2000/svg">
  <g transform="matrix(1 0 0 1 -12 -26 )">
    <path d="M 7.763392857142857 3.615  C 7.921130952380953 4.061666666666666  8 4.616666666666666  8 5.279999999999999  C 8 5.833333333333332  7.811011904761905 6.585  7.433035714285714 7.535  C 7.424107142857144 7.558333333333334  7.408482142857144 7.598333333333334  7.386160714285714 7.655  C 7.3638392857142865 7.711666666666666  7.343750000000001 7.761666666666667  7.325892857142857 7.805  C 7.308035714285715 7.848333333333334  7.288690476190477 7.885  7.267857142857143 7.915  C 7.232142857142857 7.971666666666667  7.190476190476191 8  7.142857142857143 8  C 7.098214285714286 8  7.063244047619048 7.983333333333333  7.037946428571429 7.95  C 7.01264880952381 7.916666666666666  7 7.875  7 7.825  C 7 7.795  7.003720238095239 7.7508333333333335  7.011160714285714 7.6925  C 7.018601190476191 7.634166666666666  7.022321428571429 7.595  7.022321428571429 7.575  C 7.037202380952381 7.348333333333334  7.0446428571428585 7.1433333333333335  7.044642857142857 6.96  C 7.0446428571428585 6.623333333333334  7.018601190476192 6.321666666666666  6.966517857142857 6.055  C 6.914434523809525 5.788333333333332  6.842261904761905 5.5575  6.75 5.3625  C 6.657738095238096 5.1675  6.538690476190476 4.999166666666666  6.392857142857143 4.8575  C 6.24702380952381 4.715833333333333  6.090029761904762 4.6  5.921875 4.51  C 5.753720238095239 4.42  5.555803571428571 4.349166666666666  5.328125 4.297499999999999  C 5.100446428571429 4.245833333333334  4.871279761904762 4.21  4.640625 4.1899999999999995  C 4.409970238095238 4.17  4.148809523809524 4.16  3.857142857142857 4.16  L 2.857142857142857 4.16  L 2.857142857142857 5.4399999999999995  C 2.857142857142857 5.526666666666666  2.828869047619048 5.601666666666667  2.7723214285714284 5.665  C 2.7157738095238098 5.728333333333333  2.648809523809524 5.76  2.5714285714285716 5.76  C 2.4940476190476195 5.76  2.4270833333333335 5.728333333333333  2.3705357142857144 5.665  L 0.08482142857142858 3.1050000000000004  C 0.028273809523809524 3.041666666666666  0 2.966666666666666  0 2.88  C 0 2.793333333333333  0.028273809523809524 2.718333333333333  0.08482142857142858 2.6550000000000002  L 2.3705357142857144 0.09499999999999975  C 2.4270833333333335 0.03166666666666629  2.4940476190476195 0  2.5714285714285716 0  C 2.648809523809524 0  2.7157738095238098 0.03166666666666629  2.7723214285714284 0.09499999999999975  C 2.828869047619048 0.15833333333333233  2.857142857142857 0.2333333333333325  2.857142857142857 0.3200000000000003  L 2.857142857142857 1.5999999999999996  L 3.857142857142857 1.5999999999999996  C 5.979166666666667 1.5999999999999996  7.28125 2.2716666666666665  7.763392857142857 3.615  Z " fill-rule="nonzero" fill="#000000" stroke="none" transform="matrix(1 0 0 1 12 26 )" />
  </g>
</svg>